Coordinates
version=1
nRows=5
nColumns=40
inDegrees=yes

Units are S.I. units (second, meters, Newtons, ...)
Angles are in degrees.

endheader
time	pelvis_tilt	pelvis_list	pelvis_rotation	pelvis_tx	pelvis_ty	pelvis_tz	hip_flexion_r	hip_adduction_r	hip_rotation_r	knee_angle_r	knee_angle_r_beta	ankle_angle_r	subtalar_angle_r	mtp_angle_r	hip_flexion_l	hip_adduction_l	hip_rotation_l	knee_angle_l	knee_angle_l_beta	ankle_angle_l	subtalar_angle_l	mtp_angle_l	lumbar_extension	lumbar_bending	lumbar_rotation	arm_flex_r	arm_add_r	arm_rot_r	elbow_flex_r	pro_sup_r	wrist_flex_r	wrist_dev_r	arm_flex_l	arm_add_l	arm_rot_l	elbow_flex_l	pro_sup_l	wrist_flex_l	wrist_dev_l
     17.98142857	     -3.76261190	     -2.98427165	     -3.69095829	      1.04684013	      0.92042975	      0.44869770	     28.13535569	     -2.81866755	    -15.96940047	     10.56427338	     10.56427338	      2.53075391	      6.92850736	     12.72730554	     -1.51780573	     -3.71719059	    -13.34577274	     12.32089284	     12.32089284	     17.16048359	     -6.38066012	     -7.76762925	    -12.91565623	      4.47197354	      2.60870551	    -11.15831760	    -12.80753985	     -8.22949395	     21.34696468	     47.22613319	      0.00000000	      0.00000000	     20.21558554	    -17.61180668	     -7.36880534	     93.56117606	     48.17524901	      0.00000000	      0.00000000
     17.99285714	     -3.74409529	     -3.08493403	     -3.58181258	      1.04883492	      0.91876756	      0.45081450	     27.69408919	     -2.44564191	    -16.48962934	     10.79973041	     10.79973041	      2.37761475	      7.15210585	     12.11367337	     -2.14761890	     -3.96921974	    -13.22511743	     12.54703396	     12.54703396	     17.87310754	     -6.31927829	     -7.30942249	    -12.71004370	      4.60710851	      2.71607929	    -12.46846499	    -12.70766200	     -8.21391884	     21.38648357	     47.20270423	      0.00000000	      0.00000000	     20.25556107	    -17.65413568	     -7.60829420	     95.83395185	     48.24294196	      0.00000000	      0.00000000
     18.00428571	     -3.71087844	     -3.13722851	     -3.40888351	      1.05093771	      0.91712272	      0.45299989	     27.17138538	     -2.13733124	    -16.64174919	     11.13727554	     11.13727554	      0.94040405	      6.80185874	      7.97140868	     -2.58781326	     -4.28147087	    -13.34267299	     13.27079964	     13.27079964	     19.60032791	     -5.40875834	     -4.94268905	    -12.56660827	      4.68813777	      1.89372773	    -13.73654905	    -12.79909103	     -7.84073242	     23.22234840	     47.04322941	      0.00000000	      0.00000000	     19.09345050	    -18.27146019	     -8.66010303	     99.48736113	     48.40970812	      0.00000000	      0.00000000
     18.01571429	     -3.64658582	     -3.28818313	     -3.23250285	      1.05310889	      0.91556468	      0.45538949	     26.71910542	     -1.75183396	    -16.34557716	     11.86834038	     11.86834038	     -0.63860056	      5.61189469	      3.38117078	     -2.98610864	     -4.73546703	    -13.35091824	     14.11912372	     14.11912372	     20.88807740	     -4.95801957	     -3.46166618	    -12.38240533	      4.86758961	      1.95372816	    -15.02242693	    -12.85632871	     -6.65831867	     23.83674767	     46.86768730	      0.00000000	      0.00000000	     18.99316350	    -18.10837198	     -9.04769210	    101.32500577	     48.51274618	      0.00000000	      0.00000000
     18.02714286	     -3.62503193	     -3.47634365	     -3.04895924	      1.05516227	      0.91416896	      0.45780497	     26.60584394	     -1.49182380	    -16.13848667	     13.35909674	     13.35909674	     -0.86307424	      4.70930093	      2.28752682	     -3.30584446	     -5.20681453	    -13.09175455	     14.91968843	     14.91968843	     21.38517152	     -5.24603702	     -3.37526793	    -12.15283537	      5.10483541	      2.19631277	    -16.00138366	    -12.74394381	     -6.44411021	     23.75925461	     46.83671004	      0.00000000	      0.00000000	     18.99292013	    -17.77684639	     -9.15067415	    102.67656383	     48.55539760	      0.00000000	      0.00000000
